<?xml version="1.0" standalone="no"?>
<!DOCTYPE svg PUBLIC "-//W3C//DTD SVG 20010904//EN"
 "http://www.w3.org/TR/2001/REC-SVG-20010904/DTD/svg10.dtd">
<svg version="1.0" xmlns="http://www.w3.org/2000/svg"
 width="16.000000pt" height="16.000000pt" viewBox="0 0 16.000000 16.000000"
 preserveAspectRatio="xMidYMid meet">
<metadata>
Created by potrace 1.11, written by Peter Selinger 2001-2013
</metadata>
<g transform="translate(0.000000,16.000000) scale(0.008333,-0.008333)"
fill="#000000" stroke="none">
<path d="M937 1693 c-4 -3 -7 -21 -7 -39 0 -31 -2 -33 -50 -43 -28 -6 -53 -11
-55 -11 -3 0 -8 15 -13 32 -16 63 -76 44 -66 -21 5 -34 3 -37 -33 -57 l-39
-20 -20 25 c-10 14 -22 33 -26 43 -9 23 -44 23 -56 1 -12 -20 4 -62 30 -81 9
-7 20 -29 24 -50 4 -20 10 -41 14 -47 4 -5 10 -22 14 -37 3 -16 11 -28 16 -28
6 0 8 -11 4 -25 -4 -16 -2 -25 5 -25 7 0 11 -6 10 -12 -1 -7 1 -21 6 -32 9
-21 -11 -39 -37 -31 -10 3 -26 7 -35 10 -12 3 -37 -13 -72 -44 l-55 -49 19
-61 c17 -57 17 -73 5 -250 -21 -295 -6 -373 89 -474 51 -55 107 -87 196 -112
33 -9 84 -30 112 -46 l53 -29 41 30 c24 17 90 45 154 65 91 28 121 42 160 77
90 79 118 190 95 383 -22 198 -24 309 -6 364 21 65 21 64 -16 86 -18 10 -42
30 -55 43 -20 22 -24 23 -58 11 -31 -12 -37 -11 -53 4 -14 15 -15 19 -3 26 8
5 16 24 18 43 2 18 12 40 22 48 18 15 24 32 40 119 5 24 16 50 25 56 20 15 21
68 2 84 -21 18 -60 -4 -53 -29 3 -10 -1 -28 -9 -39 -14 -19 -15 -19 -59 6 -46
25 -55 46 -35 83 7 14 6 23 -6 34 -20 21 -54 4 -54 -27 0 -39 -11 -45 -73 -39
l-58 5 2 31 c2 17 0 37 -5 44 -8 13 -38 16 -49 5z m361 -948 c-3 -3 -9 2 -12
12 -6 14 -5 15 5 6 7 -7 10 -15 7 -18z"/>
</g>
</svg>
