<?xml version="1.0" standalone="no"?>
<!DOCTYPE svg PUBLIC "-//W3C//DTD SVG 20010904//EN"
 "http://www.w3.org/TR/2001/REC-SVG-20010904/DTD/svg10.dtd">
<svg version="1.0" xmlns="http://www.w3.org/2000/svg"
 width="16.000000pt" height="16.000000pt" viewBox="0 0 16.000000 16.000000"
 preserveAspectRatio="xMidYMid meet">
<metadata>
Created by potrace 1.11, written by Peter Selinger 2001-2013
</metadata>
<g transform="translate(0.000000,16.000000) scale(0.008000,-0.008000)"
fill="#000000" stroke="none">
<path d="M984 1915 c-13 -9 -19 -26 -19 -52 l0 -38 -64 -14 c-60 -13 -65 -12
-78 5 -7 10 -13 25 -13 35 0 29 -27 44 -55 31 -24 -11 -25 -15 -19 -67 5 -44
4 -55 -7 -55 -8 0 -30 -11 -49 -24 l-35 -23 -17 28 c-10 16 -22 29 -28 29 -5
0 -10 8 -10 19 0 10 -7 24 -15 31 -21 17 -65 -2 -65 -28 0 -24 29 -82 41 -82
12 0 39 -66 39 -96 0 -12 7 -29 15 -38 8 -8 12 -21 9 -30 -3 -9 5 -25 20 -39
21 -20 24 -26 11 -31 -21 -8 -19 -27 3 -33 14 -3 18 -11 14 -29 -2 -14 0 -24
7 -24 19 0 12 -29 -10 -41 -17 -8 -31 -8 -61 0 l-38 12 -70 -63 c-39 -34 -68
-67 -66 -73 34 -77 39 -122 30 -285 -5 -91 -9 -237 -9 -325 1 -183 12 -226 88
-323 62 -82 131 -125 273 -172 68 -23 139 -52 159 -66 43 -29 57 -30 79 -6 25
29 112 69 209 97 160 46 238 102 289 207 48 97 52 176 21 467 -18 178 -14 327
11 386 l17 40 -27 20 c-16 11 -49 39 -74 62 -42 39 -47 40 -70 27 -37 -20 -77
-18 -90 6 -8 15 -6 21 10 30 10 6 17 17 14 24 -3 8 -1 17 5 20 6 4 7 14 4 22
-3 9 6 27 22 43 14 16 25 37 24 47 -2 11 5 31 15 46 10 15 15 32 11 37 -9 15
13 88 29 94 17 7 27 66 14 90 -12 24 -55 22 -68 -3 -6 -11 -8 -25 -5 -30 6 -9
-21 -70 -31 -70 -3 0 -20 11 -37 24 -18 13 -42 27 -54 31 -18 5 -23 14 -23 40
0 19 5 37 10 40 17 10 11 44 -9 55 -26 14 -50 3 -56 -26 -17 -81 -7 -73 -88
-67 -39 3 -74 7 -76 9 -2 2 -3 24 -3 48 1 54 -22 75 -54 51z m-7 -531 c-3 -3
-12 -4 -19 -1 -8 3 -5 6 6 6 11 1 17 -2 13 -5z m56 -1 c-7 -2 -19 -2 -25 0 -7
3 -2 5 12 5 14 0 19 -2 13 -5z m137 -13 c18 -12 2 -12 -25 0 -13 6 -15 9 -5 9
8 0 22 -4 30 -9z m-449 -41 c-14 -5 -30 -13 -36 -17 -6 -4 -2 1 8 11 11 9 27
17 36 16 10 0 7 -4 -8 -10z m229 6 c0 -2 -10 -9 -22 -15 -22 -11 -22 -10 -4 4
21 17 26 19 26 11z m399 -31 c14 -12 -19 -1 -35 12 -18 14 -18 14 6 3 14 -6
27 -13 29 -15z m92 17 c-7 -5 -11 -14 -7 -20 5 -7 1 -9 -9 -5 -12 5 -13 9 -4
20 6 8 17 14 23 14 6 0 5 -4 -3 -9z m-862 -3 c-2 -2 -17 -14 -34 -28 l-30 -25
24 28 c14 15 29 27 34 27 6 0 8 -1 6 -2z m41 -18 c0 -5 -7 -7 -15 -4 -8 4 -15
8 -15 10 0 2 7 4 15 4 8 0 15 -4 15 -10z m780 0 c0 -5 -2 -10 -4 -10 -3 0 -8
5 -11 10 -3 6 -1 10 4 10 6 0 11 -4 11 -10z m-503 -22 c-3 -8 -6 -5 -6 6 -1
11 2 17 5 13 3 -3 4 -12 1 -19z m478 13 c3 -5 -8 -19 -25 -31 -16 -12 -30 -17
-30 -12 0 5 12 14 26 20 14 7 22 17 19 22 -3 6 -4 10 -1 10 3 0 7 -4 11 -9z
m125 -21 c0 -5 -5 -10 -11 -10 -5 0 -7 5 -4 10 3 6 8 10 11 10 2 0 4 -4 4 -10z
m-980 -14 c0 -2 -7 -7 -16 -10 -8 -3 -12 -2 -9 4 6 10 25 14 25 6z m155 -6 c3
-6 -1 -7 -9 -4 -18 7 -21 14 -7 14 6 0 13 -4 16 -10z m758 -10 c-3 -12 -8 -19
-11 -16 -5 6 5 36 12 36 2 0 2 -9 -1 -20z m113 -8 c-4 -3 -14 2 -24 12 -16 18
-16 18 6 6 13 -6 21 -14 18 -18z m-952 -20 c-16 -15 -31 -26 -34 -24 -5 4 47
52 57 52 3 0 -7 -12 -23 -28z m320 -12 c10 -13 9 -13 -6 -1 -10 7 -18 21 -17
30 0 13 1 14 6 1 3 -8 11 -22 17 -30z m326 -28 c0 -3 -7 3 -15 14 -8 10 -14
26 -15 34 0 8 7 2 15 -14 8 -15 15 -31 15 -34z m-203 12 c-3 -3 -12 -4 -19 -1
-8 3 -5 6 6 6 11 1 17 -2 13 -5z m-297 -34 c6 -11 8 -20 6 -20 -3 0 -10 9 -16
20 -6 11 -8 20 -6 20 3 0 10 -9 16 -20z m-139 -17 c-12 -20 -14 -14 -5 12 4 9
9 14 11 11 3 -2 0 -13 -6 -23z m629 23 c0 -3 -4 -8 -10 -11 -5 -3 -10 -1 -10
4 0 6 5 11 10 11 6 0 10 -2 10 -4z m-549 -23 c13 -16 12 -17 -3 -4 -17 13 -22
21 -14 21 2 0 10 -8 17 -17z m639 -27 c0 -7 -16 -26 -35 -43 -19 -17 -35 -27
-35 -22 0 5 11 16 25 25 14 9 22 21 18 27 -4 6 -1 7 7 2 10 -6 12 -3 8 13 -4
12 -2 20 3 16 5 -3 9 -11 9 -18z m-800 4 c0 -5 -5 -10 -11 -10 -5 0 -7 5 -4
10 3 6 8 10 11 10 2 0 4 -4 4 -10z m920 7 c0 -2 -12 -14 -27 -28 l-28 -24 24
28 c23 25 31 32 31 24z m-835 -17 c3 -6 -1 -7 -9 -4 -10 4 -16 1 -16 -9 0 -9
-5 -19 -12 -23 -6 -4 -9 -3 -6 2 3 5 8 17 11 27 7 19 22 22 32 7z m110 -34 c2
-15 -1 -24 -6 -20 -5 3 -7 9 -4 14 3 5 1 20 -6 32 -9 18 -9 21 1 11 7 -6 14
-23 15 -37z m792 -13 c-3 -10 -5 -2 -5 17 0 19 2 27 5 18 2 -10 2 -26 0 -35z
m-582 17 c-48 -24 -49 -25 -27 -2 9 10 28 19 42 20 20 2 17 -2 -15 -18z m-396
-37 c0 -11 -3 -13 -6 -5 -2 6 -9 10 -14 6 -5 -3 -9 0 -9 5 0 6 7 11 15 11 8 0
15 -8 14 -17z m51 -18 c0 -5 -5 -3 -10 5 -5 8 -10 20 -10 25 0 6 5 3 10 -5 5
-8 10 -19 10 -25z m166 7 c-18 -16 -18 -16 -6 6 6 13 14 21 18 18 3 -4 -2 -14
-12 -24z m21 -17 c0 -8 -4 -12 -9 -9 -5 3 -6 10 -3 15 9 13 12 11 12 -6z m416
0 c-3 -9 -8 -14 -10 -11 -3 3 -2 9 2 15 9 16 15 13 8 -4z m151 -17 c-7 -11
-34 -10 -34 2 0 5 7 7 15 4 11 -5 14 -1 9 12 -5 15 -4 16 4 4 6 -8 8 -18 6
-22z m-827 -20 c-3 -7 -5 -2 -5 12 0 14 2 19 5 13 2 -7 2 -19 0 -25z m1000 0
c-3 -7 -5 -2 -5 12 0 14 2 19 5 13 2 -7 2 -19 0 -25z m-684 15 c-7 -2 -19 -2
-25 0 -7 3 -2 5 12 5 14 0 19 -2 13 -5z m643 -34 c3 -6 -5 -3 -20 6 -14 10
-26 19 -26 22 0 7 39 -17 46 -28z m-245 -21 c-11 -11 -13 -10 -7 0 4 7 2 21
-5 30 -12 15 -11 15 6 0 16 -15 17 -20 6 -30z m-632 -28 c11 -24 11 -24 -3 -6
-9 11 -16 24 -16 30 0 12 5 7 19 -24z m792 3 c13 -16 12 -17 -3 -4 -17 13 -22
21 -14 21 2 0 10 -8 17 -17z m136 -15 c1 -26 -1 -29 -7 -13 -6 17 -3 45 5 45
1 0 2 -15 2 -32z m-830 -10 c-4 -13 0 -30 11 -43 15 -18 14 -18 -7 1 -16 16
-21 28 -16 43 9 28 19 27 12 -1z m-190 -30 c-3 -7 -5 -2 -5 12 0 14 2 19 5 13
2 -7 2 -19 0 -25z m776 -28 c-7 -27 -13 -25 -11 4 1 14 5 23 9 20 4 -2 5 -13
2 -24z m257 20 c0 -5 -8 -10 -17 -10 -15 0 -16 2 -3 10 19 12 20 12 20 0z
m-760 -4 c0 -2 -7 -7 -16 -10 -8 -3 -12 -2 -9 4 6 10 25 14 25 6z m751 -39
c-10 -9 -11 -8 -5 6 3 10 9 15 12 12 3 -3 0 -11 -7 -18z m-341 7 c0 -8 -19
-13 -24 -6 -3 5 1 9 9 9 8 0 15 -2 15 -3z m24 -10 c3 -8 2 -12 -4 -9 -6 3 -10
10 -10 16 0 14 7 11 14 -7z m214 -48 c11 -19 16 -39 12 -46 -5 -9 -9 -9 -14
-1 -4 6 -2 11 4 11 5 0 -1 18 -16 41 -14 23 -21 38 -16 35 6 -3 19 -21 30 -40z
m-89 1 c0 -9 -2 -8 -6 1 -2 6 -10 9 -15 6 -7 -4 -8 -2 -4 5 9 13 26 5 25 -12z
m171 13 c0 -5 -5 -10 -11 -10 -5 0 -7 5 -4 10 3 6 8 10 11 10 2 0 4 -4 4 -10z
m-591 -36 c13 -12 -8 -10 -29 2 l-25 15 25 -7 c14 -3 27 -8 29 -10z m354 -32
c-6 -15 -4 -15 9 -4 13 11 18 11 24 0 4 -7 4 -10 -1 -6 -4 4 -14 3 -21 -3 -13
-10 -32 6 -20 18 3 3 0 13 -7 22 -10 14 -10 14 5 3 10 -8 14 -20 11 -30z
m-485 14 c-7 -8 -15 -12 -17 -11 -5 6 10 25 20 25 5 0 4 -6 -3 -14z m192 -11
c5 3 11 1 14 -4 4 -5 -2 -8 -11 -7 -9 2 -18 8 -19 15 -1 6 0 7 3 1 2 -5 9 -8
13 -5z m-43 -1 c-3 -3 -12 -4 -19 -1 -8 3 -5 6 6 6 11 1 17 -2 13 -5z m-207
-13 c-14 -4 -24 -13 -22 -19 1 -7 -2 -12 -8 -12 -14 0 -12 27 3 33 6 3 21 5
32 5 16 0 15 -2 -5 -7z m170 -1 c0 -5 -8 -10 -17 -10 -15 0 -16 2 -3 10 19 12
20 12 20 0z m-274 -37 c-7 -38 -14 -38 -12 1 0 19 4 32 9 29 4 -2 5 -16 3 -30z
m744 -9 c0 -7 -4 -15 -9 -18 -5 -4 -8 2 -6 11 1 10 -3 25 -9 33 -10 13 -9 13
7 1 9 -7 17 -19 17 -27z m-56 1 c9 -14 15 -25 13 -25 -2 0 -13 11 -25 25 -12
14 -18 25 -13 25 5 0 16 -11 25 -25z m244 -36 c-3 -33 -4 -33 -8 8 -3 23 -2
39 3 34 5 -5 7 -24 5 -42z m-788 7 c0 -2 -8 -10 -17 -17 -16 -13 -17 -12 -4 4
13 16 21 21 21 13z m-20 -50 c0 -2 -8 -10 -17 -17 -16 -13 -17 -12 -4 4 13 16
21 21 21 13z m535 -6 c-3 -5 -12 -10 -18 -10 -7 0 -6 4 3 10 19 12 23 12 15 0z
m272 -27 c-3 -10 -5 -4 -5 12 0 17 2 24 5 18 2 -7 2 -21 0 -30z m-1060 -5 c-3
-7 -5 -2 -5 12 0 14 2 19 5 13 2 -7 2 -19 0 -25z m840 26 c-3 -3 -12 -4 -19
-1 -8 3 -5 6 6 6 11 1 17 -2 13 -5z m-327 -7 c0 -2 -12 -14 -27 -28 l-28 -24
24 28 c23 25 31 32 31 24z m270 -41 c-7 -7 -13 -7 -20 0 -6 6 -3 10 10 10 13
0 16 -4 10 -10z m-773 -38 c-3 -8 -6 -5 -6 6 -1 11 2 17 5 13 3 -3 4 -12 1
-19z m868 2 c10 -11 16 -20 13 -20 -3 0 -13 9 -23 20 -10 11 -16 20 -13 20 3
0 13 -9 23 -20z m-360 -10 c3 -6 -1 -7 -9 -4 -18 7 -21 14 -7 14 6 0 13 -4 16
-10z m529 -24 c-3 -15 -8 -25 -11 -23 -2 3 -1 17 3 31 3 15 8 25 11 23 2 -3 1
-17 -3 -31z m-509 -15 c3 -5 2 -12 -3 -15 -5 -3 -9 1 -9 9 0 17 3 19 12 6z
m369 -7 c3 -8 2 -12 -4 -9 -6 3 -10 10 -10 16 0 14 7 11 14 -7z m-334 -29 c19
-22 8 -25 -12 -3 -10 10 -14 18 -9 18 5 0 14 -7 21 -15z m-340 0 c0 -2 -10 -9
-22 -15 -22 -11 -22 -10 -4 4 21 17 26 19 26 11z m105 -5 c-3 -5 -12 -10 -18
-10 -7 0 -6 4 3 10 19 12 23 12 15 0z m320 -8 c-3 -3 -11 0 -18 7 -9 10 -8 11
6 5 10 -3 15 -9 12 -12z m81 3 c10 -8 14 -15 9 -15 -6 0 -15 4 -20 9 -6 5 -21
11 -35 14 l-25 4 26 2 c14 0 34 -6 45 -14z m185 -8 c-10 -9 -11 -8 -5 6 3 10
9 15 12 12 3 -3 0 -11 -7 -18z m85 -14 c-8 -16 -27 -39 -43 -53 l-28 -25 26
30 c15 17 32 40 38 53 6 12 14 22 17 22 2 0 -2 -12 -10 -27z m-486 14 c0 -2
-10 -12 -22 -23 l-23 -19 19 23 c18 21 26 27 26 19z m-335 -36 c-6 -5 -25 10
-25 20 0 5 6 4 14 -3 8 -7 12 -15 11 -17z m580 9 c3 -5 2 -10 -4 -10 -5 0 -13
5 -16 10 -3 6 -2 10 4 10 5 0 13 -4 16 -10z m-631 -69 c-3 -3 -15 6 -27 18
l-22 24 27 -19 c14 -10 24 -21 22 -23z m139 -46 c-3 -9 -8 -14 -10 -11 -3 3
-2 9 2 15 9 16 15 13 8 -4z m-48 -5 c4 -6 11 -7 17 -4 7 4 8 2 4 -5 -5 -8 -12
-9 -19 -3 -7 5 -19 12 -27 15 -12 4 -12 6 2 6 9 1 20 -4 23 -9z m135 6 c0 -3
-4 -8 -10 -11 -5 -3 -10 -1 -10 4 0 6 5 11 10 11 6 0 10 -2 10 -4z m334 -12
c3 -8 2 -12 -4 -9 -6 3 -10 10 -10 16 0 14 7 11 14 -7z m141 6 c-3 -5 -12 -10
-18 -10 -7 0 -6 4 3 10 19 12 23 12 15 0z m-515 -30 c-12 -8 -12 -10 -1 -10 8
0 12 -2 9 -5 -3 -3 -13 -2 -22 1 -14 5 -15 9 -4 15 7 5 18 9 23 9 6 0 3 -5 -5
-10z m443 3 c-7 -2 -19 -2 -25 0 -7 3 -2 5 12 5 14 0 19 -2 13 -5z m-43 -7 c0
-2 -9 -6 -20 -9 -11 -3 -18 -1 -14 4 5 9 34 13 34 5z m-130 -56 c-8 -5 -19
-10 -25 -10 -5 0 -3 5 5 10 8 5 20 10 25 10 6 0 3 -5 -5 -10z m-85 -20 c3 -5
2 -10 -4 -10 -5 0 -13 5 -16 10 -3 6 -2 10 4 10 5 0 13 -4 16 -10z m25 -20 c0
-5 -5 -10 -11 -10 -5 0 -7 5 -4 10 3 6 8 10 11 10 2 0 4 -4 4 -10z"/>
</g>
</svg>
